<svg xmlns="http://www.w3.org/2000/svg" width="1280" height="440" viewBox="0 0 1280 440" font-family="ui-monospace, 'SF Mono', 'JetBrains Mono', Menlo, monospace">
  <defs>
    <radialGradient id="gTop" cx="50%" cy="-6%" r="70%"><stop offset="0%" stop-color="#46f08a" stop-opacity="0.16"/><stop offset="55%" stop-color="#46f08a" stop-opacity="0.03"/><stop offset="100%" stop-color="#46f08a" stop-opacity="0"/></radialGradient>
    <radialGradient id="gBot" cx="50%" cy="112%" r="55%"><stop offset="0%" stop-color="#2aa863" stop-opacity="0.10"/><stop offset="100%" stop-color="#2aa863" stop-opacity="0"/></radialGradient>
    <filter id="glowLogo" x="-50%" y="-50%" width="200%" height="200%"><feGaussianBlur stdDeviation="5" result="b"/><feMerge><feMergeNode in="b"/><feMergeNode in="SourceGraphic"/></feMerge></filter>
    <pattern id="grid" width="36" height="36" patternUnits="userSpaceOnUse"><path d="M36 0H0V36" fill="none" stroke="#46f08a" stroke-opacity="0.04" stroke-width="1"/></pattern>
  </defs>

  <rect width="1280" height="440" fill="#050807"/>
  <rect width="1280" height="440" fill="url(#grid)"/>
  <rect width="1280" height="440" fill="url(#gTop)"/>
  <rect width="1280" height="440" fill="url(#gBot)"/>

  <g stroke="#46f08a" stroke-opacity="0.38" stroke-width="2.5" fill="none" stroke-linecap="square">
    <path d="M34 74V34H74"/><path d="M1246 74V34H1206"/>
    <path d="M34 366V406H74"/><path d="M1246 366V406H1206"/>
  </g>

  <g transform="translate(588 82)">
    <rect x="0" y="0" width="104" height="104" rx="25" fill="#0b120e" stroke="#46f08a" stroke-opacity="0.5" stroke-width="2.6"/>
    <svg x="17" y="17" width="70" height="70" viewBox="64 69 172 172" preserveAspectRatio="xMidYMid meet" filter="url(#glowLogo)">
      <g fill="#46f08a">
        <path d="M164.99 123.84a3.72 3.72 0 1 1 0-7.44 3.72 3.72 0 1 1 0 7.44m14.9-7.45a3.72 3.72 0 1 0 0 7.44 3.72 3.72 0 1 0 0-7.44m-.01 6.75c-1.67 0-3.02-1.36-3.02-3.02s1.36-3.02 3.02-3.02 3.02 1.36 3.02 3.02-1.35 3.02-3.02 3.02m18.62 27.61v-2.5c0-.03-.01-.05-.01-.08zm7.45 5.44h.01v15.06h-.01z"/>
        <path d="M109.14 80.25v50.7c0 2.76 2.24 5 5 5h39.71c1.2.96 2.48 1.85 3.81 2.65-4.8.24-11.4 5.06-11.29 9.76.03 1.34 1.17 2.39 2.5 2.39h29.73c2.76 0 5 2.24 5 5v15.5c0 18.51-15 33.51-33.51 33.51-17 0-31.05-12.66-33.22-29.07-.33-2.52-2.42-4.44-4.97-4.44H91.61c-2.92 0-5.24 2.49-4.99 5.4 1.45 17.18 9.75 32.41 22.15 42.96 11.08 9.43 25.43 15.14 41.13 15.14s30.05-5.7 41.13-15.14c13.68-11.65 22.37-28.99 22.37-48.36v-91c0-2.76-2.24-5-5-5h-94.26c-2.76 0-5 2.24-5 5m71.55 55.7c-3.01 1.31-6.03 2.08-8.25 2.08-2.32 0-5.38-.77-8.4-2.08-3.99-1.73-7.91-4.42-10.01-7.56-1.64-2.45-2.17-5.18-.74-7.94 9.13-17.57 15.25-18.59 19.14-18.59s10.01 1.01 19.14 18.59c1.43 2.76.87 5.48-.8 7.94-2.13 3.15-6.1 5.83-10.08 7.56m25.27 35.3c0 20.59-11.17 38.62-27.76 48.36a55.7 55.7 0 0 1-28.3 7.7c-10.32 0-19.99-2.81-28.3-7.7-13.73-8.07-23.75-21.8-26.79-37.96-.29-1.54.9-2.96 2.47-2.96h2.92c1.18 0 2.21.82 2.44 1.98 4.19 21.15 22.26 38.43 46.36 38.95.37.01.74.03 1.11.03s.74-.02 1.11-.03c26.17-.59 47.28-22.05 47.28-48.36v-7.62h.01v-15.46c-.05-3.45-3.65-6.93-7.44-8.58-1.31-.57-2.63-.92-3.85-.99 1.35-.8 2.64-1.7 3.85-2.67 2.65-2.14 4.85-4.66 6.16-7.46 1.53-3.27 1.83-6.9.17-10.73-11.9-27.59-19.88-27.59-24.95-27.59s-13.05 0-24.95 27.59c-1.64 3.8-1.36 7.42.14 10.66H119.1a2.5 2.5 0 0 1-2.5-2.5V85.2a2.5 2.5 0 0 1 2.5-2.5h84.36a2.5 2.5 0 0 1 2.5 2.5v71h.01v15.05z"/>
        <path d="m181.22 121.49-.8-1.1a.8.8 0 0 0 .54-.39q.12-.21.12-.48t-.12-.48c-.12-.21-.19-.25-.34-.32-.15-.08-.31-.11-.51-.11h-1.18c-.17 0-.32.13-.32.29v2.55c0 .16.14.29.32.29s.31-.13.31-.29v-1h.55l.77 1.15c.06.09.16.14.27.14h.26c.14-.02.21-.16.13-.25m-.92-1.6c-.06.04-.13.05-.21.05h-.85v-.85h.85c.08 0 .15.02.21.05s.11.09.14.15.05.14.05.22c0 .09-.02.16-.05.23s-.08.11-.14.15m-56.27-26.28v2.18c0 1.08.69 2.03 1.71 2.37l9.46 3.15-9.46 3.15c-1.02.34-1.71 1.3-1.71 2.37v2.18c0 1.71 1.67 2.91 3.29 2.37l17.34-5.78c1.02-.34 1.71-1.3 1.71-2.37v-3.84c0-1.08-.69-2.03-1.71-2.37l-17.34-5.78c-1.61-.54-3.29.67-3.29 2.37"/>
      </g>
    </svg>
  </g>

  <text x="640" y="272" text-anchor="middle" font-size="74" font-weight="800" letter-spacing="-2" fill="#eef7f0">JayShield<tspan font-size="32" dy="-30" fill="#46f08a">®</tspan></text>
  <text x="640" y="320" text-anchor="middle" font-size="27" font-weight="600" fill="#aec8b5">Find and remove web malware.</text>
  <text x="640" y="356" text-anchor="middle" font-size="19" letter-spacing="0.3" fill="#46f08a">by JayHackPro<tspan font-size="11" dy="-7">®</tspan></text>
</svg>
