<svg xmlns="http://www.w3.org/2000/svg" width="1280" height="640" viewBox="0 0 1280 640" font-family="ui-monospace, 'SF Mono', 'JetBrains Mono', Menlo, monospace">
  <defs>
    <radialGradient id="gTR" cx="84%" cy="4%" r="62%">
      <stop offset="0%" stop-color="#46f08a" stop-opacity="0.14"/>
      <stop offset="60%" stop-color="#46f08a" stop-opacity="0.03"/>
      <stop offset="100%" stop-color="#46f08a" stop-opacity="0"/>
    </radialGradient>
    <radialGradient id="gBL" cx="4%" cy="98%" r="55%">
      <stop offset="0%" stop-color="#2aa863" stop-opacity="0.11"/>
      <stop offset="100%" stop-color="#2aa863" stop-opacity="0"/>
    </radialGradient>
    <linearGradient id="termFill" x1="0" y1="0" x2="0" y2="1">
      <stop offset="0%" stop-color="#0f1813"/>
      <stop offset="100%" stop-color="#0a100c"/>
    </linearGradient>
    <filter id="glowLogo" x="-50%" y="-50%" width="200%" height="200%">
      <feGaussianBlur stdDeviation="4.5" result="b"/><feMerge><feMergeNode in="b"/><feMergeNode in="SourceGraphic"/></feMerge>
    </filter>
    <filter id="glowTerm" x="-14%" y="-24%" width="128%" height="150%">
      <feDropShadow dx="0" dy="24" stdDeviation="30" flood-color="#000000" flood-opacity="0.5"/>
      <feDropShadow dx="0" dy="0" stdDeviation="26" flood-color="#46f08a" flood-opacity="0.09"/>
    </filter>
    <pattern id="grid" width="34" height="34" patternUnits="userSpaceOnUse">
      <path d="M34 0H0V34" fill="none" stroke="#46f08a" stroke-opacity="0.035" stroke-width="1"/>
    </pattern>
  </defs>

  <!-- backdrop -->
  <rect width="1280" height="640" fill="#050807"/>
  <rect width="1280" height="640" fill="url(#grid)"/>
  <rect width="1280" height="640" fill="url(#gTR)"/>
  <rect width="1280" height="640" fill="url(#gBL)"/>

  <!-- HUD frame -->
  <g stroke="#46f08a" stroke-opacity="0.4" stroke-width="2.5" fill="none" stroke-linecap="square">
    <path d="M34 72V34H72"/><path d="M1246 72V34H1208"/>
    <path d="M34 568V606H72"/><path d="M1246 568V606H1208"/>
  </g>

  <!-- LEFT: brand lockup + tagline -->
  <g transform="translate(90 143)">
    <svg x="3" y="3" width="84" height="84" viewBox="64 69 172 172" preserveAspectRatio="xMidYMid meet" filter="url(#glowLogo)">
      <g fill="#46f08a">
        <path d="M164.99 123.84a3.72 3.72 0 1 1 0-7.44 3.72 3.72 0 1 1 0 7.44m14.9-7.45a3.72 3.72 0 1 0 0 7.44 3.72 3.72 0 1 0 0-7.44m-.01 6.75c-1.67 0-3.02-1.36-3.02-3.02s1.36-3.02 3.02-3.02 3.02 1.36 3.02 3.02-1.35 3.02-3.02 3.02m18.62 27.61v-2.5c0-.03-.01-.05-.01-.08zm7.45 5.44h.01v15.06h-.01z"/>
        <path d="M109.14 80.25v50.7c0 2.76 2.24 5 5 5h39.71c1.2.96 2.48 1.85 3.81 2.65-4.8.24-11.4 5.06-11.29 9.76.03 1.34 1.17 2.39 2.5 2.39h29.73c2.76 0 5 2.24 5 5v15.5c0 18.51-15 33.51-33.51 33.51-17 0-31.05-12.66-33.22-29.07-.33-2.52-2.42-4.44-4.97-4.44H91.61c-2.92 0-5.24 2.49-4.99 5.4 1.45 17.18 9.75 32.41 22.15 42.96 11.08 9.43 25.43 15.14 41.13 15.14s30.05-5.7 41.13-15.14c13.68-11.65 22.37-28.99 22.37-48.36v-91c0-2.76-2.24-5-5-5h-94.26c-2.76 0-5 2.24-5 5m71.55 55.7c-3.01 1.31-6.03 2.08-8.25 2.08-2.32 0-5.38-.77-8.4-2.08-3.99-1.73-7.91-4.42-10.01-7.56-1.64-2.45-2.17-5.18-.74-7.94 9.13-17.57 15.25-18.59 19.14-18.59s10.01 1.01 19.14 18.59c1.43 2.76.87 5.48-.8 7.94-2.13 3.15-6.1 5.83-10.08 7.56m25.27 35.3c0 20.59-11.17 38.62-27.76 48.36a55.7 55.7 0 0 1-28.3 7.7c-10.32 0-19.99-2.81-28.3-7.7-13.73-8.07-23.75-21.8-26.79-37.96-.29-1.54.9-2.96 2.47-2.96h2.92c1.18 0 2.21.82 2.44 1.98 4.19 21.15 22.26 38.43 46.36 38.95.37.01.74.03 1.11.03s.74-.02 1.11-.03c26.17-.59 47.28-22.05 47.28-48.36v-7.62h.01v-15.46c-.05-3.45-3.65-6.93-7.44-8.58-1.31-.57-2.63-.92-3.85-.99 1.35-.8 2.64-1.7 3.85-2.67 2.65-2.14 4.85-4.66 6.16-7.46 1.53-3.27 1.83-6.9.17-10.73-11.9-27.59-19.88-27.59-24.95-27.59s-13.05 0-24.95 27.59c-1.64 3.8-1.36 7.42.14 10.66H119.1a2.5 2.5 0 0 1-2.5-2.5V85.2a2.5 2.5 0 0 1 2.5-2.5h84.36a2.5 2.5 0 0 1 2.5 2.5v71h.01v15.05z"/>
        <path d="m181.22 121.49-.8-1.1a.8.8 0 0 0 .54-.39q.12-.21.12-.48t-.12-.48c-.12-.21-.19-.25-.34-.32-.15-.08-.31-.11-.51-.11h-1.18c-.17 0-.32.13-.32.29v2.55c0 .16.14.29.32.29s.31-.13.31-.29v-1h.55l.77 1.15c.06.09.16.14.27.14h.26c.14-.02.21-.16.13-.25m-.92-1.6c-.06.04-.13.05-.21.05h-.85v-.85h.85c.08 0 .15.02.21.05s.11.09.14.15.05.14.05.22c0 .09-.02.16-.05.23s-.08.11-.14.15m-56.27-26.28v2.18c0 1.08.69 2.03 1.71 2.37l9.46 3.15-9.46 3.15c-1.02.34-1.71 1.3-1.71 2.37v2.18c0 1.71 1.67 2.91 3.29 2.37l17.34-5.78c1.02-.34 1.71-1.3 1.71-2.37v-3.84c0-1.08-.69-2.03-1.71-2.37l-17.34-5.78c-1.61-.54-3.29.67-3.29 2.37"/>
      </g>
    </svg>
    <text x="108" y="52" font-size="56" font-weight="800" letter-spacing="-1.5" fill="#eef7f0">JayShield<tspan font-size="25" dy="-23" fill="#46f08a">®</tspan></text>
    <text x="110" y="82" font-size="20" letter-spacing="0.2" fill="#46f08a">by JayHackPro<tspan font-size="12" dy="-8">®</tspan></text>
  </g>

  <text x="90" y="316" font-size="44" font-weight="800" letter-spacing="-1" fill="#f2fff6">Find and remove</text>
  <text x="90" y="364" font-size="44" font-weight="800" letter-spacing="-1" fill="#f2fff6">web malware.</text>

  <text x="90" y="411" font-size="20" fill="#9db0a2" font-family="system-ui, -apple-system, Helvetica, Arial, sans-serif">Webshells, backdoors, and injected miners,</text>
  <text x="90" y="438" font-size="20" fill="#9db0a2" font-family="system-ui, -apple-system, Helvetica, Arial, sans-serif">found and quarantined in seconds. Never deleted.</text>

  <text x="90" y="491" font-size="18" letter-spacing="0.3" fill="#5f7167">MIT  ·  zero dependencies  ·  Node 18+</text>

  <!-- RIGHT: the product doing its job -->
  <g filter="url(#glowTerm)">
    <rect x="648" y="144" width="544" height="352" rx="16" fill="url(#termFill)" stroke="#46f08a" stroke-opacity="0.34" stroke-width="1.4"/>
  </g>
  <line x1="648" y1="190" x2="1192" y2="190" stroke="#46f08a" stroke-opacity="0.12" stroke-width="1"/>
  <g>
    <circle cx="680" cy="169" r="6" fill="#ff5f56"/><circle cx="702" cy="169" r="6" fill="#ffbd2e"/><circle cx="724" cy="169" r="6" fill="#27c93f"/>
    <text x="744" y="175" font-size="16" fill="#5f7167">jayshield</text>
  </g>
  <g font-size="17.5">
    <text x="676" y="228"><tspan fill="#46f08a" font-weight="700">$</tspan><tspan fill="#cfdacf"> npx @jayhackpro/jayshield ./public_html</tspan></text>
    <text x="676" y="270" fill="#66786c">Scanned 1,284 files (24.6 MB) in 0.9s</text>
    <text x="676" y="324"><tspan fill="#ff5c5c" font-weight="700">CRITICAL</tspan><tspan x="812" fill="#e7eee8" font-weight="700">uploads/logo.php</tspan></text>
    <text x="676" y="352"><tspan x="696" fill="#ff5c5c">✕</tspan><tspan fill="#9db0a2"> obfuscated eval of a decoded payload</tspan></text>
    <text x="676" y="406"><tspan fill="#ff9d3c" font-weight="700">HIGH</tspan><tspan x="812" fill="#e7eee8" font-weight="700">index.html</tspan></text>
    <text x="676" y="434"><tspan x="696" fill="#ff9d3c">▲</tspan><tspan fill="#9db0a2"> hidden zero-size iframe</tspan></text>
    <text x="676" y="474"><tspan fill="#46f08a" font-weight="700">✔ 2 threats quarantined,</tspan><tspan fill="#66786c"> restore anytime</tspan></text>
  </g>
</svg>
